<svg xmlns="http://www.w3.org/2000/svg" viewBox="0 0 64 64" width="64" height="64">
  <g transform="translate(4 4) scale(0.875)">
    <rect width="64" height="64" rx="14" fill="#0079A8"/>
    <path d="M 0 12.71 C 10.67 7.71 21.33 7.71 32.00 12.71 C 42.67 17.71 53.33 17.71 64.00 12.71 L 64 20.43 C 53.33 25.43 42.67 25.43 32.00 20.43 C 21.33 15.43 10.67 15.43 0.00 20.43 Z" fill="#FFFFFF"/>
    <path d="M 0 28.14 C 10.67 23.14 21.33 23.14 32.00 28.14 C 42.67 33.14 53.33 33.14 64.00 28.14 L 64 35.86 C 53.33 40.86 42.67 40.86 32.00 35.86 C 21.33 30.86 10.67 30.86 0.00 35.86 Z" fill="#FFFFFF"/>
    <path d="M 0 43.57 C 10.67 38.57 21.33 38.57 32.00 43.57 C 42.67 48.57 53.33 48.57 64.00 43.57 L 64 51.29 C 53.33 56.29 42.67 56.29 32.00 51.29 C 21.33 46.29 10.67 46.29 0.00 51.29 Z" fill="#FFFFFF"/>
  </g>
</svg>
